<?xml version="1.0" encoding="UTF-8" standalone="no"?>
<svg width="49px" height="55px" viewBox="0 0 49 55" version="1.1" xmlns="http://www.w3.org/2000/svg" xmlns:xlink="http://www.w3.org/1999/xlink">
    <!-- Generator: Sketch 3.8.1 (29687) - http://www.bohemiancoding.com/sketch -->
    <title>Group 6</title>
    <desc>Created with Sketch.</desc>
    <defs></defs>
    <g id="Page-1" stroke="none" stroke-width="1" fill="none" fill-rule="evenodd" stroke-opacity="0.75" fill-opacity="0">
        <g id="Group-2" transform="translate(-223.000000, -428.000000)" stroke="#645E5E" stroke-width="2" fill="#D8D8D8">
            <g id="Group">
                <g id="Group-8" transform="translate(189.000000, 429.000000)">
                    <g id="Group-6" transform="translate(35.000000, 0.000000)">
                        <path d="M16.7857143,34.8684211 L16.7857143,5.57894737 M30.2142857,5.57894737 L30.2142857,34.8684211" id="Stroke-1" stroke-linecap="square"></path>
                        <path d="M3.35714286,34.8684211 L43.6428571,34.8684211 L3.35714286,34.8684211 Z M3.35714286,25.1052632 L43.6428571,25.1052632 L3.35714286,25.1052632 Z M3.35714286,15.3421053 L43.6428571,15.3421053 L3.35714286,15.3421053 Z M43.6428571,53 L43.6428571,5.57894737 L3.35714286,5.57894737 L3.35714286,53 L43.6428571,53 Z M0,4.58154338 C0,5.13239439 0.450103616,5.57894737 1.00340562,5.57894737 L45.9965944,5.57894737 C46.55076,5.57894737 47,5.14117673 47,4.58154338 L47,0.997403986 C47,0.446552975 46.5498964,0 45.9965944,0 L1.00340562,0 C0.449239997,0 0,0.437770643 0,0.997403986 L0,4.58154338 Z" id="Stroke-2"></path>
                        <path d="M0,53 L16.7857143,53 L16.7857143,46.0263158 C16.7857143,42.9453421 19.7920357,40.4473684 23.5,40.4473684 C27.2079643,40.4473684 30.2142857,42.9453421 30.2142857,46.0263158 L30.2142857,53 L47,53" id="Stroke-3" stroke-linecap="round" stroke-linejoin="round"></path>
                    </g>
                </g>
            </g>
        </g>
    </g>
</svg>