<?xml version="1.0" encoding="utf-8"?>
<!-- Generator: Adobe Illustrator 16.0.0, SVG Export Plug-In . SVG Version: 6.00 Build 0)  -->
<!DOCTYPE svg PUBLIC "-//W3C//DTD SVG 1.1//EN" "http://www.w3.org/Graphics/SVG/1.1/DTD/svg11.dtd">
<svg version="1.1" id="Layer_1" xmlns="http://www.w3.org/2000/svg" xmlns:xlink="http://www.w3.org/1999/xlink" x="0px" y="0px"
	 width="100px" height="100px" viewBox="0 0 100 100" enable-background="new 0 0 100 100" xml:space="preserve">
<g>
	<path fill-rule="evenodd" clip-rule="evenodd" fill="#676767" stroke-opacity="0.75" d="M49.816,22.009c10.504,0,21.009-0.002,31.514,0.002
		c2.273,0,4.014,1.268,4.531,3.294c0.08,0.313,0.106,0.648,0.106,0.974c0.005,20.073,0.007,40.147,0.002,60.221
		c-0.001,2.631-2.149,4.766-4.781,4.766c-20.909,0.002-41.818,0.002-62.728,0c-2.647,0-4.781-2.113-4.781-4.754
		c-0.004-20.074-0.004-40.148-0.001-60.221c0.001-2.445,1.935-4.274,4.545-4.278c6.962-0.01,13.923-0.003,20.884-0.004
		C42.677,22.008,46.246,22.008,49.816,22.009z M49.268,30.112c-0.584,0.046-1.746,0.11-2.902,0.232
		c-4.53,0.479-8.66,2.084-12.44,4.585c-2.718,1.797-5.082,4.038-6.861,6.739c-1.398,2.124-2.673,4.432-3.457,6.836
		c-1.843,5.646-1.848,11.341,0.485,16.929c0.953,2.283,2.014,4.471,3.573,6.441c2.016,2.543,4.331,4.689,7.069,6.424
		c3.83,2.428,7.998,3.797,12.498,4.201c6.883,0.615,13.174-1.076,18.859-4.961c2.709-1.852,4.927-4.238,6.82-6.904
		c1.617-2.279,2.724-4.855,3.451-7.514c1.36-4.961,1.376-9.945-0.495-14.85c-0.944-2.479-1.874-4.949-3.653-6.979
		c-1.159-1.324-2.297-2.672-3.539-3.915c-1.999-2.001-4.387-3.449-6.945-4.646C57.959,30.966,53.989,30.157,49.268,30.112z"/>
	<path fill-rule="evenodd" clip-rule="evenodd" fill="#676767" stroke-opacity="0.75" d="M49.68,20.185c-10.1,0-20.199-0.003-30.301,0.002
		c-1.223,0.001-2.357-0.3-3.35-1.008c-1.214-0.865-1.605-2.105-1.189-3.541c0.627-2.166,1.844-3.959,3.496-5.467
		c0.696-0.635,1.499-0.936,2.479-0.934c19.264,0.018,38.526,0.019,57.791-0.001c1.034-0.001,1.901,0.295,2.604,1.006
		c1.537,1.554,2.834,3.267,3.427,5.426c0.457,1.663-0.194,3.024-1.75,3.813c-1.001,0.507-2.022,0.714-3.135,0.713
		C69.729,20.178,59.704,20.185,49.68,20.185z M66.51,17.453c2.351,0,4.702-0.02,7.053,0.007c1.408,0.016,2.538-1.045,2.831-1.892
		c0.593-1.708-0.768-3.556-2.678-3.571c-4.802-0.037-9.605-0.027-14.408-0.001c-1.354,0.008-2.3,0.734-2.652,1.865
		c-0.593,1.898,0.684,3.56,2.802,3.585C61.808,17.473,64.158,17.452,66.51,17.453z M32.645,17.019
		c1.608-0.002,2.859-1.173,2.865-2.687c0.008-1.502-1.25-2.706-2.85-2.7c-1.541,0.005-2.91,1.094-2.902,2.722
		C29.765,15.938,31.193,17.02,32.645,17.019z M25.059,17.018c1.575,0.012,2.892-1.197,2.902-2.664
		c0.011-1.464-1.298-2.717-2.846-2.725c-1.643-0.009-2.867,1.12-2.893,2.666C22.197,15.83,23.424,17.006,25.059,17.018z"/>
	<path fill-rule="evenodd" clip-rule="evenodd" fill="#676767" stroke-opacity="0.75" d="M24.793,58.869c2.535,3.498,11.182,3.115,12.447-0.684
		c0.83,1.615,2.248,2.441,3.939,2.818c2.41,0.535,4.764,0.357,7.014-0.746c0.727-0.357,1.384-1.07,1.879-2.188
		c0.53,1.74,1.975,2.34,3.449,2.797c2.105,0.65,4.247,0.586,6.332-0.137c1.304-0.453,2.405-1.215,3.07-2.592
		c0.666,1.838,2.198,2.453,3.841,2.859c2.091,0.518,4.167,0.373,6.182-0.379c0.601-0.225,1.142-0.615,1.821-0.99
		c-0.133,0.752-0.2,1.467-0.393,2.146c-0.367,1.283-0.632,2.639-1.25,3.797c-1.1,2.057-2.274,4.107-3.703,5.938
		c-1.742,2.232-3.98,4.012-6.441,5.428c-4.794,2.758-9.967,3.938-15.496,3.43c-4.699-0.432-8.98-1.969-12.822-4.754
		c-2.801-2.031-5.034-4.518-6.84-7.473c-1.666-2.729-2.533-5.674-3.002-8.785C24.801,59.219,24.805,59.076,24.793,58.869z"/>
</g>
</svg>
