<?xml version="1.0" encoding="utf-8"?>
<!-- Generator: Adobe Illustrator 16.0.0, SVG Export Plug-In . SVG Version: 6.00 Build 0)  -->
<!DOCTYPE svg PUBLIC "-//W3C//DTD SVG 1.1//EN" "http://www.w3.org/Graphics/SVG/1.1/DTD/svg11.dtd">
<svg version="1.1" id="Layer_1" xmlns="http://www.w3.org/2000/svg" xmlns:xlink="http://www.w3.org/1999/xlink" x="0px" y="0px"
	 width="100px" height="100px" viewBox="0 0 100 100" enable-background="new 0 0 100 100" xml:space="preserve">
<g>
	<path fill-rule="evenodd" clip-rule="evenodd" stroke-opacity="0.75" fill="#676767" d="M66.872,32.935c-1.211,0-2.348,0-3.562,0
		c0-4.922,0-9.956,0-15.036c-12.618,0-25.157,0-37.749,0c0,20.931,0,41.855,0,62.841c12.536,0,25.072,0,37.683,0
		c0-4.424,0-8.865,0-13.359c1.276,0,2.481,0,3.739,0c0.011,0.23,0.032,0.463,0.032,0.695c0.001,5.773,0.005,11.547-0.002,17.32
		c-0.002,1.93-0.739,3.535-2.287,4.705c-0.88,0.666-1.907,0.947-3.025,0.947c-11.499-0.01-22.998-0.029-34.496,0.01
		c-3.07,0.01-5.191-2.555-5.315-5.207c-0.007-0.145-0.004-0.289-0.004-0.432c0-23.549,0.001-47.096-0.001-70.647
		c-0.001-2.077,0.708-3.829,2.531-4.904c0.746-0.44,1.704-0.729,2.568-0.732C38.578,9.089,50.174,9.1,61.768,9.109
		c2.852,0.001,5.011,2.253,5.067,4.861c0.137,6.273,0.062,12.552,0.068,18.828C66.903,32.867,66.873,32.935,66.872,32.935z
		 M46.944,85.582c-0.003-1.455-1.212-2.744-2.564-2.73c-1.368,0.012-2.54,1.291-2.533,2.76c0.009,1.533,1.124,2.711,2.562,2.699
		C45.847,88.301,46.947,87.115,46.944,85.582z M44.491,13.074c-1.771,0-3.543,0.004-5.313-0.001
		c-0.468-0.001-0.903,0.052-0.888,0.659c0.014,0.588,0.443,0.658,0.91,0.658c3.472-0.001,6.942,0,10.413-0.001
		c0.467,0,0.883-0.074,0.88-0.681c-0.002-0.632-0.453-0.635-0.901-0.635C47.892,13.074,46.191,13.074,44.491,13.074z"/>
	<path fill-rule="evenodd" clip-rule="evenodd" stroke-opacity="0.75" fill="#676767" d="M65.037,64.592c-4.166,0-8.333,0.002-12.5,0
		c-1.012,0-1.271-0.252-1.271-1.27c-0.005-4.885,0.006-9.771-0.011-14.657c-0.002-0.729,0.287-1.129,0.973-1.387
		c1.618-0.609,3.21-1.289,4.821-1.926c0.838-0.33,1.398-0.021,1.414,0.886c0.037,2.129,0.822,3.929,2.342,5.357
		c1.373,1.291,3.089,1.764,4.969,1.59c3.399-0.313,5.814-3.317,5.961-6.794c0.047-1.132,0.465-1.405,1.519-0.994
		c1.635,0.636,3.272,1.271,4.876,1.981c0.308,0.138,0.65,0.63,0.653,0.96c0.041,5.101,0.031,10.203,0.024,15.302
		c-0.001,0.703-0.313,0.951-1.124,0.951C73.468,64.594,69.253,64.592,65.037,64.592z"/>
	<path fill-rule="evenodd" clip-rule="evenodd" stroke-opacity="0.75" fill="#676767" d="M60.531,48.192c-0.119-0.899-0.242-1.829-0.373-2.829
		c0.72-0.114,1.349-0.229,1.981-0.313c0.637-0.085,1.277-0.143,2.011-0.222c0-0.858-0.003-1.712,0-2.564
		c0.002-0.892,0.157-1.08,1.014-1.25c1.08-0.215,1.744-1.091,1.591-2.097c-0.158-1.038-0.894-1.618-1.906-1.504
		c-0.775,0.088-1.272,0.693-1.448,1.632c-0.065,0.346-0.233,0.751-0.491,0.959c-0.202,0.161-0.704,0.185-0.912,0.038
		c-0.269-0.188-0.519-0.598-0.531-0.922c-0.067-1.762,1.396-3.396,3.104-3.557c1.957-0.185,3.561,1.011,3.897,2.904
		c0.321,1.809-0.406,3.27-2.006,4.124c-0.211,0.113-0.41,0.421-0.444,0.663c-0.069,0.491-0.021,0.999-0.021,1.507
		c1.326,0.18,2.61,0.353,4.009,0.542c-0.167,1.075-0.312,2.004-0.449,2.887c-1.589-0.147-3.033-0.388-4.478-0.389
		C63.631,47.802,62.185,48.041,60.531,48.192z"/>
	<path fill-rule="evenodd" clip-rule="evenodd"  stroke-opacity="0.75" fill="#676767" d="M46.944,85.582c0.003,1.533-1.098,2.719-2.536,2.729
		c-1.438,0.012-2.553-1.166-2.562-2.699c-0.007-1.469,1.165-2.748,2.533-2.76C45.732,82.838,46.941,84.127,46.944,85.582z"/>
</g>
</svg>
