<?xml version="1.0" encoding="utf-8"?>
<!-- Generator: Adobe Illustrator 16.0.0, SVG Export Plug-In . SVG Version: 6.00 Build 0)  -->
<!DOCTYPE svg PUBLIC "-//W3C//DTD SVG 1.1//EN" "http://www.w3.org/Graphics/SVG/1.1/DTD/svg11.dtd">
<svg version="1.1" id="Layer_1" xmlns="http://www.w3.org/2000/svg" xmlns:xlink="http://www.w3.org/1999/xlink" x="0px" y="0px"
	 width="100px" height="100px" viewBox="0 0 100 100" enable-background="new 0 0 100 100" xml:space="preserve">
<g>
	<path fill-rule="evenodd" clip-rule="evenodd" fill="#676767" stroke-opacity="0.75" d="M0.75,45.26c0-11.258,0-22.516,0.001-33.774
		c0-1.382,0.276-1.663,1.652-1.663c20.511-0.001,41.021-0.001,61.53,0c1.251,0,1.247,0.036,1.244,1.23
		c-0.014,6.548,0,13.097-0.016,19.646c-0.002,0.667,0.26,0.85,0.898,0.847c3.928-0.022,7.857,0.001,11.787-0.023
		c0.675-0.004,1.155,0.202,1.582,0.723c4.603,5.621,9.226,11.226,13.832,16.845c1.779,2.172,3.524,4.371,5.298,6.549
		c0.458,0.561,0.693,1.146,0.691,1.896c-0.022,7.189-0.013,14.379-0.014,21.568c0,1.238-0.174,1.416-1.375,1.416
		c-1.199,0.002-2.398-0.025-3.595,0.012c-0.646,0.02-0.86-0.223-0.91-0.863c-0.503-6.451-3.727-11.15-9.542-13.84
		c-9.368-4.33-20.363,1.6-22.172,11.801c-0.122,0.682-0.165,1.381-0.2,2.076c-0.027,0.535-0.205,0.822-0.795,0.82
		c-6.464-0.01-12.93-0.012-19.395,0.006c-0.689,0.002-0.775-0.4-0.797-0.908c-0.079-2.023-0.515-3.961-1.326-5.816
		c-2.448-5.586-8.596-10.148-16.208-9.055c-3.234,0.463-6.208,1.518-8.767,3.572c-3.119,2.504-4.604,5.91-5.231,9.764
		c-0.05,0.301-0.073,0.607-0.118,0.91c-0.222,1.523-0.223,1.523-1.798,1.523c-1.615,0-3.232,0-4.848-0.002
		c-1.192,0-1.41-0.215-1.41-1.4C0.749,67.83,0.75,56.547,0.75,45.26z M13.579,35.193c-0.197,9.555,7.945,18.438,18.09,18.445
		c10.164,0.006,18.234-8.644,18.238-18.432c0.004-9.784-8.048-18.4-18.139-18.444C21.557,16.72,13.384,25.642,13.579,35.193z
		 M79.129,57.982c4.177,0,8.354,0.004,12.531-0.016c0.259,0,0.587-0.135,0.746-0.324c0.079-0.092-0.104-0.488-0.253-0.682
		c-2.075-2.646-4.15-5.293-6.255-7.916c-2.979-3.713-5.986-7.402-8.965-11.114c-0.328-0.408-0.67-0.573-1.199-0.568
		c-2.979,0.025-5.959,0.033-8.938-0.002c-0.757-0.008-1.021,0.22-1.019,0.999c0.025,6.21,0.026,12.42-0.001,18.629
		c-0.004,0.762,0.206,1.016,0.987,1.008C70.887,57.963,75.008,57.982,79.129,57.982z"/>
	<path fill-rule="evenodd" clip-rule="evenodd" fill="#676767" stroke-opacity="0.75" d="M34.228,80.504c0.015,5.338-4.331,9.697-9.644,9.674
		c-5.279-0.023-9.613-4.367-9.619-9.637c-0.005-5.475,4.304-9.861,9.667-9.844C29.995,70.715,34.212,75.023,34.228,80.504z"/>
	<path fill-rule="evenodd" clip-rule="evenodd" fill="#676767" stroke-opacity="0.75" d="M86.905,80.531c-0.007,5.311-4.286,9.617-9.587,9.646
		c-5.289,0.027-9.676-4.354-9.674-9.664c0.002-5.467,4.34-9.859,9.692-9.816C82.711,70.74,86.912,75.057,86.905,80.531z"/>
	<path fill-rule="evenodd" clip-rule="evenodd" fill="#676767" stroke-opacity="0.75" d="M34.674,28.131c0,1.644-0.02,3.289,0.017,4.931
		c0.007,0.322,0.149,0.713,0.367,0.944c1.579,1.681,3.186,3.334,4.795,4.985c1.411,1.448,1.53,2.771,0.365,4.392
		c-0.933,1.3-2.684,1.603-3.865,0.48c-2.384-2.263-4.691-4.608-6.965-6.984c-0.375-0.392-0.57-1.108-0.577-1.679
		c-0.049-4.013-0.033-8.025-0.025-12.039c0.003-1.664,1.43-3.353,3.366-3.039c1.356,0.219,2.493,1.512,2.514,3.076
		C34.692,24.843,34.674,26.487,34.674,28.131z"/>
</g>
</svg>
