<?xml version="1.0" encoding="UTF-8" standalone="no"?>
<svg width="76px" height="47px" viewBox="0 0 76 47" version="1.1" xmlns="http://www.w3.org/2000/svg" xmlns:xlink="http://www.w3.org/1999/xlink">
    <!-- Generator: Sketch 3.8.1 (29687) - http://www.bohemiancoding.com/sketch -->
    <title>Bedding Icon</title>
    <desc>Created with Sketch.</desc>
    <defs>
        <rect id="path-1" x="0" y="31" width="76" height="13"></rect>
        <mask id="mask-2" maskContentUnits="userSpaceOnUse" maskUnits="objectBoundingBox" x="0" y="0" width="76" height="13" fill="white">
            <use xlink:href="#path-1"></use>
        </mask>
        <path d="M1.11764706,33 L1.11764706,26 L1.11764706,26 C1.11764706,22.1340068 4.65062108,19 8.97681378,19 L67.0231862,19 C71.3636841,19 74.8823529,22.1418733 74.8823529,26 L74.8823529,33" id="path-3"></path>
        <mask id="mask-4" maskContentUnits="userSpaceOnUse" maskUnits="objectBoundingBox" x="0" y="0" width="73.7647059" height="14" fill="white">
            <use xlink:href="#path-3"></use>
        </mask>
        <polyline id="path-5" points="7.82352941 20.125 7.82352941 0 7.82352941 0 69.2941176 0 69.2941176 20.125"></polyline>
        <mask id="mask-6" maskContentUnits="userSpaceOnUse" maskUnits="objectBoundingBox" x="0" y="0" width="61.4705882" height="20.125" fill="white">
            <use xlink:href="#path-5"></use>
        </mask>
        <rect id="path-7" x="12.2941176" y="15" width="22.3529412" height="4" rx="2"></rect>
        <mask id="mask-8" maskContentUnits="userSpaceOnUse" maskUnits="objectBoundingBox" x="-2" y="-2" width="26.3529412" height="8">
            <rect x="10.2941176" y="13" width="26.3529412" height="8" fill="white"></rect>
            <use xlink:href="#path-7" fill="black"></use>
        </mask>
        <rect id="path-9" x="41.3529412" y="15" width="22.3529412" height="4" rx="2"></rect>
        <mask id="mask-10" maskContentUnits="userSpaceOnUse" maskUnits="objectBoundingBox" x="-2" y="-2" width="26.3529412" height="8">
            <rect x="39.3529412" y="13" width="26.3529412" height="8" fill="white"></rect>
            <use xlink:href="#path-9" fill="black"></use>
        </mask>
    </defs>
    <g id="Page-1" stroke="none" stroke-width="1" fill="none" fill-rule="evenodd" stroke-opacity="0.75">
        <g id="Group-2" transform="translate(-572.000000, -433.000000)" stroke="#645E5E">
            <g id="Group">
                <g id="Group-9" transform="translate(533.000000, 433.000000)">
                    <g id="Bedding-Icon" transform="translate(39.000000, 0.000000)">
                        <path d="M10.0588235,44 C10.0588235,45.1045695 8.55766063,46 6.70588235,46 C4.85410407,46 3.35294118,45.1045695 3.35294118,44" id="Oval-1-Copy-2" stroke-width="2"></path>
                        <path d="M72.6470588,44 C72.6470588,45.1045695 71.1458959,46 69.2941176,46 C67.4423394,46 65.9411765,45.1045695 65.9411765,44" id="Oval-1-Copy" stroke-width="2"></path>
                        <use id="Rectangle-1" mask="url(#mask-2)" stroke-width="4" xlink:href="#path-1"></use>
                        <use id="Rectangle-1" mask="url(#mask-4)" stroke-width="4" stroke-linejoin="bevel" xlink:href="#path-3"></use>
                        <use id="Rectangle-3" mask="url(#mask-6)" stroke-width="4" xlink:href="#path-5"></use>
                        <use id="Rectangle-4" mask="url(#mask-8)" stroke-width="4" xlink:href="#path-7"></use>
                        <use id="Rectangle-4-Copy" mask="url(#mask-10)" stroke-width="4" xlink:href="#path-9"></use>
                    </g>
                </g>
            </g>
        </g>
    </g>
</svg>